<?xml version="1.0" encoding="UTF-8"?>
<svg width="80px" height="80px" viewBox="0 0 80 80" version="1.1" xmlns="http://www.w3.org/2000/svg" xmlns:xlink="http://www.w3.org/1999/xlink">
    <!-- Generator: Sketch 52.2 (67145) - http://www.bohemiancoding.com/sketch -->
    <title>type/weather-38</title>
    <desc>Created with Sketch.</desc>
    <defs>
        <filter x="-16.4%" y="-16.4%" width="132.8%" height="132.8%" filterUnits="objectBoundingBox" id="filter-1">
            <feOffset dx="0" dy="0" in="SourceAlpha" result="shadowOffsetOuter1"></feOffset>
            <feGaussianBlur stdDeviation="2.5" in="shadowOffsetOuter1" result="shadowBlurOuter1"></feGaussianBlur>
            <feColorMatrix values="0 0 0 0 0   0 0 0 0 0   0 0 0 0 0  0 0 0 0.2 0" type="matrix" in="shadowBlurOuter1" result="shadowMatrixOuter1"></feColorMatrix>
            <feMerge>
                <feMergeNode in="shadowMatrixOuter1"></feMergeNode>
                <feMergeNode in="SourceGraphic"></feMergeNode>
            </feMerge>
        </filter>
        <linearGradient x1="50%" y1="99.1261741%" x2="50%" y2="8.58688121e-15%" id="linearGradient-2">
            <stop stop-color="#27BAD6" offset="0%"></stop>
            <stop stop-color="#7ECCF1" offset="100%"></stop>
        </linearGradient>
        <linearGradient x1="50%" y1="100%" x2="50%" y2="3.061617e-15%" id="linearGradient-3">
            <stop stop-color="#E6E6E6" offset="0%"></stop>
            <stop stop-color="#FFFFFF" offset="100%"></stop>
        </linearGradient>
        <linearGradient x1="50%" y1="0%" x2="50%" y2="100%" id="linearGradient-4">
            <stop stop-color="#92BFE0" offset="0%"></stop>
            <stop stop-color="#EBEBEB" offset="100%"></stop>
        </linearGradient>
    </defs>
    <g id="type/weather-38" stroke="none" stroke-width="1" fill="none" fill-rule="evenodd">
        <rect id="space" fill-opacity="0.01" fill="#D8D8D8" fill-rule="nonzero" x="0" y="0" width="80" height="80"></rect>
        <g id="weather-09" filter="url(#filter-1)" transform="translate(8.000000, 8.000000)" fill-rule="nonzero">
            <rect id="Rectangle-Copy-9" fill="url(#linearGradient-2)" transform="translate(8.098076, 32.026279) rotate(-330.000000) translate(-8.098076, -32.026279) " x="5.09807621" y="21.0262794" width="6" height="22" rx="3"></rect>
            <rect id="Rectangle-Copy-9" fill="url(#linearGradient-2)" transform="translate(20.098076, 32.026279) rotate(-330.000000) translate(-20.098076, -32.026279) " x="17.0980762" y="21.0262794" width="6" height="22" rx="3"></rect>
            <path d="M40,29.993493 L40,30 L9.6,30 L9.6,29.9914321 C9.46737462,29.9971247 9.33402198,30 9.2,30 C4.1189803,30 0,25.8672438 0,20.7692308 C0,15.6712177 4.1189803,11.5384615 9.2,11.5384615 C9.4690429,11.5384615 9.73538846,11.5500488 9.99856802,11.5727531 C11.5694559,4.94001959 17.6001342,0 24.8,0 C30.5896321,0 35.6232372,3.19434485 38.189795,7.89452756 C38.9052907,7.76180906 39.6442042,7.69230769 40.4,7.69230769 C46.8065031,7.69230769 52,12.6860547 52,18.8461538 C52,25.006253 46.8065031,30 40.4,30 C40.2661249,30 40.1327794,29.9978194 40,29.993493 Z" id="Combined-Shape" fill="url(#linearGradient-3)" opacity="0.9"></path>
            <path d="M14,52.0525589 L14,52.0525589 C14,53.704367 15.339055,55.043422 16.9908631,55.043422 C16.9939041,55.043422 16.9969451,55.0434173 16.999986,55.043408 L29.7307762,55.0045754 C30.5566764,55.0020562 31.228243,55.6695383 31.2307623,56.4954385 C31.2307669,56.496959 31.2307692,56.4984795 31.2307692,56.5 L31.2307692,56.5 C31.2307692,57.3284271 30.5591964,58 29.7307692,58 L28.6153846,58 C27.1709476,58 26,59.1709476 26,60.6153846 L26,61 C26,62.6568542 27.3431458,64 29,64 L49.4528302,64 C51.1096844,64 52.4528302,62.6568542 52.4528302,61 L52.4528302,61 C52.4528302,59.3431458 51.1096844,58 49.4528302,58 L41.5,58 C40.6715729,58 40,57.3284271 40,56.5 L40,56.5 C40,55.6715729 40.6715729,55 41.5,55 L44.1961524,55 C45.8530067,55 47.1961524,53.6568542 47.1961524,52 L47.1961524,52 C47.1961524,50.3457669 45.8551316,49.0047461 44.2008985,49.0047461 C44.1993177,49.0047461 44.197737,49.0047473 44.1961562,49.0047498 L16.9999962,49.047809 C15.3423763,49.0504335 14,50.3949369 14,52.0525589 Z" id="Path-3" fill-opacity="0.7" fill="url(#linearGradient-3)"></path>
            <path d="M27,35 L27,35 C27,36.6568542 28.3431458,38 30,38 L39.7307692,38 C40.5591964,38 41.2307692,38.6715729 41.2307692,39.5 L41.2307692,39.5 C41.2307692,40.3284271 40.5591964,41 39.7307692,41 L38.6153846,41 C37.1709476,41 36,42.1709476 36,43.6153846 L36,44 C36,45.6568542 37.3431458,47 39,47 L61,47 C62.6568542,47 64,45.6568542 64,44 L64,44 C64,42.3431458 62.6568542,41 61,41 L51.5,41 C50.6715729,41 50,40.3284271 50,39.5 L50,39.5 C50,38.6715729 50.6715729,38 51.5,38 L52.5980762,38 C54.0329541,38 55.1961524,36.8368017 55.1961524,35.4019238 L55.1961524,35 C55.1961524,33.3431458 53.8530067,32 52.1961524,32 L30,32 C28.3431458,32 27,33.3431458 27,35 Z" id="Path-3" fill-opacity="0.7" fill="url(#linearGradient-4)" transform="translate(45.500000, 39.500000) rotate(-360.000000) translate(-45.500000, -39.500000) "></path>
        </g>
    </g>
</svg>