<?xml version="1.0" encoding="UTF-8"?>
<svg width="80px" height="80px" viewBox="0 0 80 80" version="1.1" xmlns="http://www.w3.org/2000/svg" xmlns:xlink="http://www.w3.org/1999/xlink">
    <!-- Generator: Sketch 52.2 (67145) - http://www.bohemiancoding.com/sketch -->
    <title>type/weather-08</title>
    <desc>Created with Sketch.</desc>
    <defs>
        <filter x="-15.4%" y="-16.4%" width="130.9%" height="132.8%" filterUnits="objectBoundingBox" id="filter-1">
            <feOffset dx="0" dy="0" in="SourceAlpha" result="shadowOffsetOuter1"></feOffset>
            <feGaussianBlur stdDeviation="2.5" in="shadowOffsetOuter1" result="shadowBlurOuter1"></feGaussianBlur>
            <feColorMatrix values="0 0 0 0 0   0 0 0 0 0   0 0 0 0 0  0 0 0 0.2 0" type="matrix" in="shadowBlurOuter1" result="shadowMatrixOuter1"></feColorMatrix>
            <feMerge>
                <feMergeNode in="shadowMatrixOuter1"></feMergeNode>
                <feMergeNode in="SourceGraphic"></feMergeNode>
            </feMerge>
        </filter>
        <circle id="path-2" cx="23" cy="18" r="7"></circle>
        <filter x="-53.6%" y="-53.6%" width="207.1%" height="207.1%" filterUnits="objectBoundingBox" id="filter-3">
            <feOffset dx="0" dy="0" in="SourceAlpha" result="shadowOffsetOuter1"></feOffset>
            <feGaussianBlur stdDeviation="2.5" in="shadowOffsetOuter1" result="shadowBlurOuter1"></feGaussianBlur>
            <feColorMatrix values="0 0 0 0 0.961710989   0 0 0 0 0.65036732   0 0 0 0 0.138542295  0 0 0 1 0" type="matrix" in="shadowBlurOuter1"></feColorMatrix>
        </filter>
        <linearGradient x1="50%" y1="100%" x2="50%" y2="3.061617e-15%" id="linearGradient-4">
            <stop stop-color="#E6E6E6" offset="0%"></stop>
            <stop stop-color="#FFFFFF" offset="100%"></stop>
        </linearGradient>
        <linearGradient x1="50%" y1="99.1261741%" x2="50%" y2="8.58688121e-15%" id="linearGradient-5">
            <stop stop-color="#27BAD6" offset="0%"></stop>
            <stop stop-color="#7ECCF1" offset="100%"></stop>
        </linearGradient>
    </defs>
    <g id="type/weather-08" stroke="none" stroke-width="1" fill="none" fill-rule="evenodd">
        <rect id="space" fill-opacity="0.01" fill="#D8D8D8" fill-rule="nonzero" x="0" y="0" width="80" height="80"></rect>
        <g id="weather-08" filter="url(#filter-1)" transform="translate(6.000000, 8.000000)" fill-rule="nonzero">
            <circle id="Oval" fill="#FFF9D0" opacity="0.5" cx="23" cy="18" r="18"></circle>
            <g id="Oval">
                <use fill="black" fill-opacity="1" filter="url(#filter-3)" xlink:href="#path-2"></use>
                <use fill="#FFF091" xlink:href="#path-2"></use>
            </g>
            <path d="M56.2264151,40 L25.8113208,40 L25.8113208,39.9870679 C25.6488643,39.9956538 25.4853075,40 25.3207547,40 C20.173044,40 16,35.7467051 16,30.5 C16,25.2532949 20.173044,21 25.3207547,21 C25.5739006,21 25.8246894,21.0102858 26.0727407,21.0304698 C27.3959214,13.6127831 33.584391,8 41.0188679,8 C46.7115812,8 51.6737304,11.2909103 54.2804062,16.1631493 C54.9134267,16.0558374 55.5635232,16 56.2264151,16 C62.7287865,16 68,21.372583 68,28 C68,34.627417 62.7287865,40 56.2264151,40 Z" id="Combined-Shape" fill="url(#linearGradient-4)" opacity="0.9"></path>
            <rect id="Rectangle-Copy-9" fill="url(#linearGradient-5)" transform="translate(15.098076, 52.026279) rotate(-330.000000) translate(-15.098076, -52.026279) " x="12.0980762" y="41.0262794" width="6" height="22" rx="3"></rect>
            <rect id="Rectangle-Copy-9" fill="url(#linearGradient-5)" transform="translate(27.098076, 52.026279) rotate(-330.000000) translate(-27.098076, -52.026279) " x="24.0980762" y="41.0262794" width="6" height="22" rx="3"></rect>
            <rect id="Rectangle-Copy-9" fill="url(#linearGradient-5)" transform="translate(39.098076, 52.026279) rotate(-330.000000) translate(-39.098076, -52.026279) " x="36.0980762" y="41.0262794" width="6" height="22" rx="3"></rect>
            <path d="M46.1538462,51.9926254 L46.1538462,52 L11.0769231,52 L11.0769231,51.9902897 C10.9238938,51.9967413 10.7700254,52 10.6153846,52 C4.75266958,52 0,47.3162097 0,41.5384615 C0,35.7607134 4.75266958,31.0769231 10.6153846,31.0769231 C10.9258187,31.0769231 11.2331405,31.0900553 11.5368092,31.1157868 C13.3493721,23.5986889 20.3078472,18 28.6153846,18 C35.2957293,18 41.1037352,21.6202575 44.0651481,26.9471312 C44.89072,26.7967169 45.7433126,26.7179487 46.6153846,26.7179487 C54.0075036,26.7179487 60,32.3775287 60,39.3589744 C60,46.34042 54.0075036,52 46.6153846,52 C46.4609133,52 46.3070532,51.9975286 46.1538462,51.9926254 Z" id="Combined-Shape" fill="url(#linearGradient-4)" opacity="0.9"></path>
        </g>
    </g>
</svg>