<?xml version="1.0" encoding="UTF-8"?>
<svg width="80px" height="80px" viewBox="0 0 80 80" version="1.1" xmlns="http://www.w3.org/2000/svg" xmlns:xlink="http://www.w3.org/1999/xlink">
    <!-- Generator: Sketch 52.2 (67145) - http://www.bohemiancoding.com/sketch -->
    <title>type/weather-28</title>
    <desc>Created with Sketch.</desc>
    <defs>
        <filter x="-16.2%" y="-17.5%" width="132.3%" height="135.0%" filterUnits="objectBoundingBox" id="filter-1">
            <feOffset dx="0" dy="0" in="SourceAlpha" result="shadowOffsetOuter1"></feOffset>
            <feGaussianBlur stdDeviation="2.5" in="shadowOffsetOuter1" result="shadowBlurOuter1"></feGaussianBlur>
            <feColorMatrix values="0 0 0 0 0   0 0 0 0 0   0 0 0 0 0  0 0 0 0.2 0" type="matrix" in="shadowBlurOuter1" result="shadowMatrixOuter1"></feColorMatrix>
            <feMerge>
                <feMergeNode in="shadowMatrixOuter1"></feMergeNode>
                <feMergeNode in="SourceGraphic"></feMergeNode>
            </feMerge>
        </filter>
        <linearGradient x1="50%" y1="100%" x2="50%" y2="-289.101244%" id="linearGradient-2">
            <stop stop-color="#E6E6E6" offset="0%"></stop>
            <stop stop-color="#FFFFFF" offset="100%"></stop>
        </linearGradient>
        <linearGradient x1="50%" y1="100%" x2="50%" y2="0%" id="linearGradient-3">
            <stop stop-color="#E6E6E6" offset="0%"></stop>
            <stop stop-color="#FFFFFF" offset="100%"></stop>
        </linearGradient>
        <linearGradient x1="50%" y1="0%" x2="50%" y2="100%" id="linearGradient-4">
            <stop stop-color="#E6E6E6" offset="0%"></stop>
            <stop stop-color="#FFFFFF" offset="100%"></stop>
        </linearGradient>
        <linearGradient x1="50%" y1="0%" x2="50%" y2="100%" id="linearGradient-5">
            <stop stop-color="#92BFE0" offset="0%"></stop>
            <stop stop-color="#EBEBEB" offset="100%"></stop>
        </linearGradient>
        <linearGradient x1="50%" y1="100%" x2="50%" y2="3.061617e-15%" id="linearGradient-6">
            <stop stop-color="#92BFE0" offset="0%"></stop>
            <stop stop-color="#EBEBEB" offset="100%"></stop>
        </linearGradient>
    </defs>
    <g id="type/weather-28" stroke="none" stroke-width="1" fill="none" fill-rule="evenodd">
        <rect id="space" fill-opacity="0.01" fill="#D8D8D8" fill-rule="nonzero" x="0" y="0" width="80" height="80"></rect>
        <g id="weather-28" filter="url(#filter-1)" transform="translate(8.000000, 10.000000)" fill-opacity="0.7" fill-rule="nonzero">
            <path d="M1.77470218e-14,48 L1.77635684e-14,48 C2.01738478e-14,49.6568542 1.34314575,51 3,51 L17.7307692,51 C18.5591964,51 19.2307692,51.6715729 19.2307692,52.5 L19.2307692,52.5 C19.2307692,53.3284271 18.5591964,54 17.7307692,54 L16.6153846,54 C15.1709476,54 14,55.1709476 14,56.6153846 L14,57 C14,58.6568542 15.3431458,60 17,60 L39.4528302,60 C41.1096844,60 42.4528302,58.6568542 42.4528302,57 L42.4528302,57 C42.4528302,55.3431458 41.1096844,54 39.4528302,54 L29.5,54 C28.6715729,54 28,53.3284271 28,52.5 L28,52.5 C28,51.6715729 28.6715729,51 29.5,51 L30.5980762,51 C32.0329541,51 33.1961524,49.8368017 33.1961524,48.4019238 L33.1961524,48 C33.1961524,46.3431458 31.8530067,45 30.1961524,45 L3,45 C1.34314575,45 1.75606623e-14,46.3431458 1.77635684e-14,48 Z" id="Path-3" fill="url(#linearGradient-2)"></path>
            <path d="M22,39 L22,39 C22,40.6568542 23.3431458,42 25,42 L39.7307692,42 C40.5591964,42 41.2307692,42.6715729 41.2307692,43.5 L41.2307692,43.5 C41.2307692,44.3284271 40.5591964,45 39.7307692,45 L38.6153846,45 C37.1709476,45 36,46.1709476 36,47.6153846 L36,48 C36,49.6568542 37.3431458,51 39,51 L61.4528302,51 C63.1096844,51 64.4528302,49.6568542 64.4528302,48 L64.4528302,48 C64.4528302,46.3431458 63.1096844,45 61.4528302,45 L51.5,45 C50.6715729,45 50,44.3284271 50,43.5 L50,43.5 C50,42.6715729 50.6715729,42 51.5,42 L56.1961524,42 C57.8530067,42 59.1961524,40.6568542 59.1961524,39 L59.1961524,39 C59.1961524,37.3431458 57.8530067,36 56.1961524,36 L25,36 C23.3431458,36 22,37.3431458 22,39 Z" id="Path-3" fill="url(#linearGradient-3)"></path>
            <path d="M-1.00642712e-13,21 L-1.00808251e-13,21 C-8.14747761e-14,22.6568542 1.34314575,24 3,24 L17.7307692,24 C18.5591964,24 19.2307692,24.6715729 19.2307692,25.5 L19.2307692,25.5 C19.2307692,26.3284271 18.5591964,27 17.7307692,27 L12,27 C10.3431458,27 9,28.3431458 9,30 L9,30 C9,31.6568542 10.3431458,33 12,33 L39.4528302,33 C41.1096844,33 42.4528302,31.6568542 42.4528302,30 L42.4528302,30 C42.4528302,28.3431458 41.1096844,27 39.4528302,27 L29.5,27 C28.6715729,27 28,26.3284271 28,25.5 L28,25.5 C28,24.6715729 28.6715729,24 29.5,24 L30.5980762,24 C32.0329541,24 33.1961524,22.8368017 33.1961524,21.4019238 L33.1961524,21 C33.1961524,19.3431458 31.8530067,18 30.1961524,18 L3,18 C1.34314575,18 -1.01011157e-13,19.3431458 -1.00808251e-13,21 Z" id="Path-3" fill="url(#linearGradient-4)" transform="translate(21.226415, 25.500000) rotate(-180.000000) translate(-21.226415, -25.500000) "></path>
            <path d="M32,12 L32,12 C32,13.6568542 33.3431458,15 35,15 L43.7307692,15 C44.5591964,15 45.2307692,15.6715729 45.2307692,16.5 L45.2307692,16.5 C45.2307692,17.3284271 44.5591964,18 43.7307692,18 L42.6153846,18 C41.1709476,18 40,19.1709476 40,20.6153846 L40,21 C40,22.6568542 41.3431458,24 43,24 L61.4528302,24 C63.1096844,24 64.4528302,22.6568542 64.4528302,21 L64.4528302,21 C64.4528302,19.3431458 63.1096844,18 61.4528302,18 L55.5,18 C54.6715729,18 54,17.3284271 54,16.5 L54,16.5 C54,15.6715729 54.6715729,15 55.5,15 L56.5980762,15 C58.0329541,15 59.1961524,13.8368017 59.1961524,12.4019238 L59.1961524,12 C59.1961524,10.3431458 57.8530067,9 56.1961524,9 L35,9 C33.3431458,9 32,10.3431458 32,12 Z" id="Path-3" fill="url(#linearGradient-5)" transform="translate(48.226415, 16.500000) rotate(-180.000000) translate(-48.226415, -16.500000) "></path>
            <path d="M1.77470218e-14,3 L1.77635684e-14,3 C2.01738478e-14,4.65685425 1.34314575,6 3,6 L17.7307692,6 C18.5591964,6 19.2307692,6.67157288 19.2307692,7.5 L19.2307692,7.5 C19.2307692,8.32842712 18.5591964,9 17.7307692,9 L16.6153846,9 C15.1709476,9 14,10.1709476 14,11.6153846 L14,12 C14,13.6568542 15.3431458,15 17,15 L39.4528302,15 C41.1096844,15 42.4528302,13.6568542 42.4528302,12 L42.4528302,12 C42.4528302,10.3431458 41.1096844,9 39.4528302,9 L29.5,9 C28.6715729,9 28,8.32842712 28,7.5 L28,7.5 C28,6.67157288 28.6715729,6 29.5,6 L30.5980762,6 C32.0329541,6 33.1961524,4.83680166 33.1961524,3.40192379 L33.1961524,3 C33.1961524,1.34314575 31.8530067,-3.04359188e-16 30.1961524,0 L3,0 C1.34314575,3.04359188e-16 1.75606623e-14,1.34314575 1.77635684e-14,3 Z" id="Path-3" fill="url(#linearGradient-6)" transform="translate(21.226415, 7.500000) scale(-1, 1) rotate(-360.000000) translate(-21.226415, -7.500000) "></path>
        </g>
    </g>
</svg>