<?xml version="1.0" encoding="UTF-8"?>
<svg width="80px" height="80px" viewBox="0 0 80 80" version="1.1" xmlns="http://www.w3.org/2000/svg" xmlns:xlink="http://www.w3.org/1999/xlink">
    <!-- Generator: Sketch 52.2 (67145) - http://www.bohemiancoding.com/sketch -->
    <title>type/weather-37</title>
    <desc>Created with Sketch.</desc>
    <defs>
        <filter x="-16.4%" y="-16.4%" width="132.8%" height="132.8%" filterUnits="objectBoundingBox" id="filter-1">
            <feOffset dx="0" dy="0" in="SourceAlpha" result="shadowOffsetOuter1"></feOffset>
            <feGaussianBlur stdDeviation="2.5" in="shadowOffsetOuter1" result="shadowBlurOuter1"></feGaussianBlur>
            <feColorMatrix values="0 0 0 0 0   0 0 0 0 0   0 0 0 0 0  0 0 0 0.2 0" type="matrix" in="shadowBlurOuter1" result="shadowMatrixOuter1"></feColorMatrix>
            <feMerge>
                <feMergeNode in="shadowMatrixOuter1"></feMergeNode>
                <feMergeNode in="SourceGraphic"></feMergeNode>
            </feMerge>
        </filter>
        <linearGradient x1="50%" y1="100%" x2="50%" y2="3.061617e-15%" id="linearGradient-2">
            <stop stop-color="#418BA8" offset="0%"></stop>
            <stop stop-color="#CBCECE" offset="100%"></stop>
        </linearGradient>
        <linearGradient x1="50%" y1="100%" x2="50%" y2="3.061617e-15%" id="linearGradient-3">
            <stop stop-color="#92BFE0" offset="0%"></stop>
            <stop stop-color="#EBEBEB" offset="100%"></stop>
        </linearGradient>
        <linearGradient x1="50%" y1="100%" x2="50%" y2="3.061617e-15%" id="linearGradient-4">
            <stop stop-color="#E6E6E6" offset="0%"></stop>
            <stop stop-color="#FFFFFF" offset="100%"></stop>
        </linearGradient>
    </defs>
    <g id="type/weather-37" stroke="none" stroke-width="1" fill="none" fill-rule="evenodd">
        <rect id="space" fill-opacity="0.01" fill="#D8D8D8" fill-rule="nonzero" x="0" y="0" width="80" height="80"></rect>
        <g id="weather-21" filter="url(#filter-1)" transform="translate(8.000000, 8.000000)">
            <path d="M54.0377358,26 L28.3018868,26 L28.3018868,25.9894927 C28.1644237,25.9964687 28.0260294,26 27.8867925,26 C23.5310373,26 20,22.5441979 20,18.28125 C20,14.0183021 23.5310373,10.5625 27.8867925,10.5625 C28.1009928,10.5625 28.3131987,10.5708572 28.5230883,10.5872567 C29.6427027,4.56038624 34.8791001,0 41.1698113,0 C45.9867226,0 50.1854642,2.67386466 52.391113,6.63255878 C52.9267457,6.54536787 53.4768273,6.5 54.0377358,6.5 C59.5397424,6.5 64,10.8652237 64,16.25 C64,21.6347763 59.5397424,26 54.0377358,26 Z" id="Combined-Shape" fill="url(#linearGradient-2)" fill-rule="nonzero" opacity="0.9"></path>
            <path d="M46.1538462,46.9926254 L46.1538462,47 L11.0769231,47 L11.0769231,46.9902897 C10.9238938,46.9967413 10.7700254,47 10.6153846,47 C4.75266958,47 0,42.3162097 0,36.5384615 C0,30.7607134 4.75266958,26.0769231 10.6153846,26.0769231 C10.9258187,26.0769231 11.2331405,26.0900553 11.5368092,26.1157868 C13.3493721,18.5986889 20.3078472,13 28.6153846,13 C35.2957293,13 41.1037352,16.6202575 44.0651481,21.9471312 C44.89072,21.7967169 45.7433126,21.7179487 46.6153846,21.7179487 C54.0075036,21.7179487 60,27.3775287 60,34.3589744 C60,41.34042 54.0075036,47 46.6153846,47 C46.4609133,47 46.3070532,46.9975286 46.1538462,46.9926254 Z" id="Combined-Shape" fill="url(#linearGradient-3)" fill-rule="nonzero" opacity="0.9"></path>
            <path d="M3.53616709e-15,52 L3.55271368e-15,52 C5.96299309e-15,53.6568542 1.34314575,55 3,55 L17.7307692,55 C18.5591964,55 19.2307692,55.6715729 19.2307692,56.5 L19.2307692,56.5 C19.2307692,57.3284271 18.5591964,58 17.7307692,58 L16.6153846,58 C15.1709476,58 14,59.1709476 14,60.6153846 L14,61 C14,62.6568542 15.3431458,64 17,64 L39.4528302,64 C41.1096844,64 42.4528302,62.6568542 42.4528302,61 L42.4528302,61 C42.4528302,59.3431458 41.1096844,58 39.4528302,58 L29.5,58 C28.6715729,58 28,57.3284271 28,56.5 L28,56.5 C28,55.6715729 28.6715729,55 29.5,55 L30.5980762,55 C32.0329541,55 33.1961524,53.8368017 33.1961524,52.4019238 L33.1961524,52 C33.1961524,50.3431458 31.8530067,49 30.1961524,49 L3,49 C1.34314575,49 3.34980755e-15,50.3431458 3.55271368e-15,52 Z" id="Path-3" fill-opacity="0.7" fill="url(#linearGradient-3)" fill-rule="nonzero"></path>
            <path d="M21,43 L21,43 C21,44.6568542 22.3431458,46 24,46 L38.7307692,46 C39.5591964,46 40.2307692,46.6715729 40.2307692,47.5 L40.2307692,47.5 C40.2307692,48.3284271 39.5591964,49 38.7307692,49 L37.6153846,49 C36.1709476,49 35,50.1709476 35,51.6153846 L35,52 C35,53.6568542 36.3431458,55 38,55 L60.4528302,55 C62.1096844,55 63.4528302,53.6568542 63.4528302,52 L63.4528302,52 C63.4528302,50.3431458 62.1096844,49 60.4528302,49 L50.5,49 C49.6715729,49 49,48.3284271 49,47.5 L49,47.5 C49,46.6715729 49.6715729,46 50.5,46 L55.1961524,46 C56.8530067,46 58.1961524,44.6568542 58.1961524,43 L58.1961524,43 C58.1961524,41.3431458 56.8530067,40 55.1961524,40 L24,40 C22.3431458,40 21,41.3431458 21,43 Z" id="Path-3" fill-opacity="0.7" fill="url(#linearGradient-3)" fill-rule="nonzero"></path>
            <path d="M32.7462064,38.2143408 L28.9980726,40.43684 L25.2526451,38.2143408 L25.2526451,33.7849794 L28.9980726,31.5638399 L32.7462064,33.7849794 L32.7462064,38.2143408 Z M41.3960061,41.8421339 L39.0957074,40.5075466 L40.8344626,39.4986176 C41.1138812,39.3368082 41.3141425,39.0750578 41.3973592,38.7616371 C41.4812525,38.4482165 41.4386293,38.1211984 41.2769318,37.8410914 C40.9433885,37.2611612 40.202557,37.0612791 39.6261292,37.3957757 L36.7331653,39.1097312 L35.4382324,38.3142818 L35.4382324,33.6857182 L36.7318122,32.8902688 L39.6558978,34.6049041 C40.2330021,34.9414404 40.960979,34.721842 41.284374,34.1589086 C41.6165642,33.581018 41.4163029,32.8365589 40.8378454,32.5013824 L39.0970605,31.4924534 L41.3966827,30.1578661 C41.9731105,29.8233694 42.1713421,29.0789104 41.8384753,28.4996601 C41.5056086,27.9210896 40.7329788,27.7164484 40.1497854,28.0557041 L37.8149823,29.3828129 L37.8149823,27.3724335 C37.8149823,26.6918823 37.2980916,26.1588633 36.6377706,26.1588633 C35.9781261,26.1588633 35.4625885,26.6918823 35.4625885,27.3724335 L35.4625885,30.7962652 L33.9653647,31.6257082 L30.0061447,29.361057 L30.0061447,27.6831347 L33.0127704,25.9746181 C33.5973169,25.6346825 33.8077266,24.8902235 33.4789192,24.3177718 C33.3192514,24.0383447 33.0513343,23.8377827 32.7272628,23.7527988 C32.400485,23.667135 32.0669417,23.709287 31.7854934,23.873136 L30.0061447,24.8718669 L30.0061447,22.2135702 C30.0061447,21.5330191 29.4899306,21 28.8302861,21 C28.1699651,21 27.653751,21.5330191 27.653751,22.2135702 L27.653751,24.8881838 L25.9366457,23.8717763 C25.3588647,23.5372796 24.63833,23.7317228 24.3000508,24.3184517 C23.9651544,24.9011014 24.1559438,25.6455604 24.725606,25.9766578 L27.653751,27.6858541 L27.653751,29.5663781 L24.0382227,31.6828174 L22.5369395,30.7887867 L22.5369395,27.3724335 C22.5369395,26.6918823 22.0200488,26.1588633 21.3597278,26.1588633 C20.7000833,26.1588633 20.1838692,26.6918823 20.1838692,27.3724335 L20.1838692,29.3828129 L17.8504191,28.0570639 C17.5682943,27.892535 17.2401634,27.8490233 16.9208278,27.9340072 C16.6041985,28.0189911 16.3403407,28.2195531 16.1793198,28.4996601 C15.846453,29.08095 16.0399487,29.8254091 16.6116406,30.1578661 L18.9072034,31.4931333 L17.1664185,32.5013824 C16.5886376,32.8358791 16.3890529,33.5796583 16.7219197,34.1595885 C17.0439615,34.7170829 17.813885,34.9292027 18.3733988,34.6042243 L21.3434904,32.8957077 L22.8995748,33.7809001 L22.8995748,38.21842 L21.3421373,39.1042923 L18.3855769,37.3957757 C17.8044132,37.0585596 17.061552,37.2591216 16.7266556,37.8410914 C16.3937888,38.4210216 16.5913439,39.1648008 17.1670951,39.4986176 L18.9038206,40.5082264 L16.6035219,41.8421339 C16.0270941,42.1773104 15.8288625,42.9210896 16.1610527,43.5003399 C16.3768748,43.874949 16.7773974,44.107465 17.2083652,44.107465 C17.4329826,44.107465 17.6724843,44.0469564 17.8477129,43.9442959 L20.1838692,42.6165073 L20.1838692,44.6275665 C20.1838692,45.3087975 20.6973771,45.8418166 21.3543153,45.8418166 C22.0220785,45.8418166 22.5457347,45.3087975 22.5457347,44.6275665 L22.5349098,41.2050945 L24.1221159,40.3233015 L27.9933833,42.5356026 L27.9933833,44.3161855 L24.9874342,46.0260617 C24.7032796,46.1905906 24.4908403,46.4686579 24.4055939,46.7875176 C24.3237303,47.0948194 24.3636473,47.4123193 24.5199323,47.6822282 C24.7371075,48.0629561 25.1234224,48.2900331 25.553037,48.2900331 C25.7803607,48.2900331 26.0300107,48.2274849 26.2059159,48.1261841 L27.9933833,47.1294928 L27.9933833,49.7864298 C27.9933833,50.466301 28.5089209,51 29.1685653,51 C29.8288864,51 30.345777,50.466301 30.345777,49.7864298 L30.345777,47.1118162 L32.0622058,48.1289036 C32.6420164,48.4613606 33.3693167,48.2438018 33.6927117,47.6822282 C34.0289612,47.0982187 33.8395248,46.3544396 33.2712157,46.024702 L30.345777,44.313466 L30.345777,42.5376422 L34.0506111,40.3695327 L35.4625885,41.2118932 L35.4625885,44.6275665 C35.4625885,45.3087975 35.9781261,45.8418166 36.6377706,45.8418166 C37.2980916,45.8418166 37.8149823,45.3087975 37.8149823,44.6275665 L37.8149823,42.617867 L40.1470792,43.9429361 C40.6930619,44.2617958 41.5069617,44.0605539 41.8290035,43.5003399 C42.1625468,42.91905 41.9683745,42.1752708 41.3960061,41.8421339 Z" id="Fill-1" fill="url(#linearGradient-4)"></path>
        </g>
    </g>
</svg>