<?xml version="1.0" encoding="UTF-8"?>
<svg width="80px" height="80px" viewBox="0 0 80 80" version="1.1" xmlns="http://www.w3.org/2000/svg" xmlns:xlink="http://www.w3.org/1999/xlink">
    <!-- Generator: Sketch 52.2 (67145) - http://www.bohemiancoding.com/sketch -->
    <title>type/weather-27</title>
    <desc>Created with Sketch.</desc>
    <defs>
        <filter x="-16.4%" y="-16.4%" width="132.8%" height="132.8%" filterUnits="objectBoundingBox" id="filter-1">
            <feOffset dx="0" dy="0" in="SourceAlpha" result="shadowOffsetOuter1"></feOffset>
            <feGaussianBlur stdDeviation="2.5" in="shadowOffsetOuter1" result="shadowBlurOuter1"></feGaussianBlur>
            <feColorMatrix values="0 0 0 0 0   0 0 0 0 0   0 0 0 0 0  0 0 0 0.2 0" type="matrix" in="shadowBlurOuter1" result="shadowMatrixOuter1"></feColorMatrix>
            <feMerge>
                <feMergeNode in="shadowMatrixOuter1"></feMergeNode>
                <feMergeNode in="SourceGraphic"></feMergeNode>
            </feMerge>
        </filter>
        <linearGradient x1="50%" y1="100%" x2="50%" y2="3.061617e-15%" id="linearGradient-2">
            <stop stop-color="#E6E6E6" offset="0%"></stop>
            <stop stop-color="#FFFFFF" offset="100%"></stop>
        </linearGradient>
        <linearGradient x1="50%" y1="100%" x2="50%" y2="3.061617e-15%" id="linearGradient-3">
            <stop stop-color="#92BFE0" offset="0%"></stop>
            <stop stop-color="#EBEBEB" offset="100%"></stop>
        </linearGradient>
        <linearGradient x1="50%" y1="100%" x2="50%" y2="-289.101244%" id="linearGradient-4">
            <stop stop-color="#E6E6E6" offset="0%"></stop>
            <stop stop-color="#FFFFFF" offset="100%"></stop>
        </linearGradient>
    </defs>
    <g id="type/weather-27" stroke="none" stroke-width="1" fill="none" fill-rule="evenodd">
        <rect id="space" fill-opacity="0.01" fill="#D8D8D8" fill-rule="nonzero" x="0" y="0" width="80" height="80"></rect>
        <g id="weather-21" filter="url(#filter-1)" transform="translate(8.000000, 8.000000)" fill-rule="nonzero">
            <path d="M54.0377358,26 L28.3018868,26 L28.3018868,25.9894927 C28.1644237,25.9964687 28.0260294,26 27.8867925,26 C23.5310373,26 20,22.5441979 20,18.28125 C20,14.0183021 23.5310373,10.5625 27.8867925,10.5625 C28.1009928,10.5625 28.3131987,10.5708572 28.5230883,10.5872567 C29.6427027,4.56038624 34.8791001,0 41.1698113,0 C45.9867226,0 50.1854642,2.67386466 52.391113,6.63255878 C52.9267457,6.54536787 53.4768273,6.5 54.0377358,6.5 C59.5397424,6.5 64,10.8652237 64,16.25 C64,21.6347763 59.5397424,26 54.0377358,26 Z" id="Combined-Shape" fill="url(#linearGradient-2)" opacity="0.9"></path>
            <path d="M46.1538462,46.9926254 L46.1538462,47 L11.0769231,47 L11.0769231,46.9902897 C10.9238938,46.9967413 10.7700254,47 10.6153846,47 C4.75266958,47 0,42.3162097 0,36.5384615 C0,30.7607134 4.75266958,26.0769231 10.6153846,26.0769231 C10.9258187,26.0769231 11.2331405,26.0900553 11.5368092,26.1157868 C13.3493721,18.5986889 20.3078472,13 28.6153846,13 C35.2957293,13 41.1037352,16.6202575 44.0651481,21.9471312 C44.89072,21.7967169 45.7433126,21.7179487 46.6153846,21.7179487 C54.0075036,21.7179487 60,27.3775287 60,34.3589744 C60,41.34042 54.0075036,47 46.6153846,47 C46.4609133,47 46.3070532,46.9975286 46.1538462,46.9926254 Z" id="Combined-Shape" fill="url(#linearGradient-3)" opacity="0.9"></path>
            <path d="M3.53616709e-15,52 L3.55271368e-15,52 C5.96299309e-15,53.6568542 1.34314575,55 3,55 L17.7307692,55 C18.5591964,55 19.2307692,55.6715729 19.2307692,56.5 L19.2307692,56.5 C19.2307692,57.3284271 18.5591964,58 17.7307692,58 L16.6153846,58 C15.1709476,58 14,59.1709476 14,60.6153846 L14,61 C14,62.6568542 15.3431458,64 17,64 L39.4528302,64 C41.1096844,64 42.4528302,62.6568542 42.4528302,61 L42.4528302,61 C42.4528302,59.3431458 41.1096844,58 39.4528302,58 L29.5,58 C28.6715729,58 28,57.3284271 28,56.5 L28,56.5 C28,55.6715729 28.6715729,55 29.5,55 L30.5980762,55 C32.0329541,55 33.1961524,53.8368017 33.1961524,52.4019238 L33.1961524,52 C33.1961524,50.3431458 31.8530067,49 30.1961524,49 L3,49 C1.34314575,49 3.34980755e-15,50.3431458 3.55271368e-15,52 Z" id="Path-3" fill-opacity="0.7" fill="url(#linearGradient-4)"></path>
            <path d="M21,43 L21,43 C21,44.6568542 22.3431458,46 24,46 L38.7307692,46 C39.5591964,46 40.2307692,46.6715729 40.2307692,47.5 L40.2307692,47.5 C40.2307692,48.3284271 39.5591964,49 38.7307692,49 L37.6153846,49 C36.1709476,49 35,50.1709476 35,51.6153846 L35,52 C35,53.6568542 36.3431458,55 38,55 L60.4528302,55 C62.1096844,55 63.4528302,53.6568542 63.4528302,52 L63.4528302,52 C63.4528302,50.3431458 62.1096844,49 60.4528302,49 L50.5,49 C49.6715729,49 49,48.3284271 49,47.5 L49,47.5 C49,46.6715729 49.6715729,46 50.5,46 L55.1961524,46 C56.8530067,46 58.1961524,44.6568542 58.1961524,43 L58.1961524,43 C58.1961524,41.3431458 56.8530067,40 55.1961524,40 L24,40 C22.3431458,40 21,41.3431458 21,43 Z" id="Path-3" fill-opacity="0.7" fill="url(#linearGradient-2)"></path>
        </g>
    </g>
</svg>