<?xml version="1.0" encoding="UTF-8"?>
<svg width="80px" height="80px" viewBox="0 0 80 80" version="1.1" xmlns="http://www.w3.org/2000/svg" xmlns:xlink="http://www.w3.org/1999/xlink">
    <!-- Generator: Sketch 52.2 (67145) - http://www.bohemiancoding.com/sketch -->
    <title>type/weather-42</title>
    <desc>Created with Sketch.</desc>
    <defs>
        <linearGradient x1="50%" y1="100%" x2="50%" y2="3.061617e-15%" id="linearGradient-1">
            <stop stop-color="#E6E6E6" offset="0%"></stop>
            <stop stop-color="#FFFFFF" offset="100%"></stop>
        </linearGradient>
        <path d="M48.0687522,44.7239269 L39.9958487,49.4652586 L31.928774,44.7239269 L31.928774,35.2746227 L39.9958487,30.5361918 L48.0687522,35.2746227 L48.0687522,44.7239269 Z M66.6990901,52.463219 L61.7446005,49.6160994 L65.4896117,47.4637175 C66.0914365,47.1185242 66.5227685,46.5601233 66.7020045,45.8914925 C66.8826976,45.2228618 66.7908938,44.5252232 66.4426224,43.9276617 C65.7242214,42.6904773 64.1285843,42.264062 62.8870475,42.9776549 L56.6560484,46.6340933 L53.8669622,44.9371346 L53.8669622,35.0628654 L56.6531339,33.3659067 L62.9511645,37.0237955 C64.1941584,37.7417396 65.7621087,37.2732629 66.4586516,36.0723383 C67.1741382,34.8395051 66.7428061,33.2513257 65.4968978,32.5362825 L61.7475149,30.3839006 L66.7005473,27.536781 C67.9420841,26.8231881 68.3690445,25.2350088 67.6521007,23.9992748 C66.9351569,22.7649912 65.2710313,22.3284232 64.0149225,23.0521688 L58.9861156,25.8833341 L58.9861156,21.5945248 C58.9861156,20.1426823 57.8728127,19.0055749 56.4505828,19.0055749 C55.02981,19.0055749 53.9194215,20.1426823 53.9194215,21.5945248 L53.9194215,28.8986992 L50.6946317,30.6681775 L42.1670809,25.8369215 L42.1670809,22.2573539 L48.6428901,18.6125187 C49.9019134,17.8873227 50.3551034,16.2991434 49.6469029,15.0779132 C49.303003,14.4818021 48.7259507,14.0539365 48.0279506,13.8726374 C47.3241216,13.689888 46.6057206,13.7798124 45.9995243,14.1293568 L42.1670809,16.2599828 L42.1670809,10.5889498 C42.1670809,9.13710737 41.0552352,8 39.6344624,8 C38.2122325,8 37.1003867,9.13710737 37.1003867,10.5889498 L37.1003867,16.2947922 L33.402006,14.1264561 C32.1575548,13.4128632 30.6056339,13.8276753 29.8770325,15.0793636 C29.1557171,16.3223496 29.5666483,17.9105289 30.793613,18.6168699 L37.1003867,22.2631555 L37.1003867,26.2749399 L29.313095,30.7900104 L26.079562,28.8827449 L26.079562,21.5945248 C26.079562,20.1426823 24.966259,19.0055749 23.5440291,19.0055749 C22.1232563,19.0055749 21.0114106,20.1426823 21.0114106,21.5945248 L21.0114106,25.8833341 L15.9855181,23.0550696 C15.3778646,22.7040747 14.6711212,22.6112496 13.9833215,22.7925486 C13.3013506,22.9738476 12.7330415,23.4017133 12.3862272,23.9992748 C11.6692834,25.23936 12.0860434,26.8275393 13.3173798,27.536781 L18.2616689,30.385351 L14.5122861,32.5362825 C13.2678349,33.2498754 12.8379601,34.8366043 13.5549039,36.0737887 C14.2485324,37.2631102 15.9068292,37.7156325 17.1119359,37.0223451 L23.5090562,33.3775099 L26.8606227,35.2659203 L26.8606227,44.7326293 L23.5061418,46.6224901 L17.1381656,42.9776549 C15.8864283,42.2582604 14.2864197,42.6861261 13.5651043,43.9276617 C12.8481605,45.1648461 13.2736637,46.751575 14.5137433,47.4637175 L18.2543829,49.6175497 L13.2998934,52.463219 C12.0583566,53.1782622 11.6313962,54.7649912 12.3468827,56.0007252 C12.8117304,56.7998912 13.6743945,57.2959253 14.6026327,57.2959253 C15.086424,57.2959253 15.6022738,57.1668404 15.9796893,56.9478312 L21.0114106,54.1152155 L21.0114106,58.4054752 C21.0114106,59.8587681 22.1174275,60.9958754 23.5323715,60.9958754 C24.9706306,60.9958754 26.0985056,59.8587681 26.0985056,58.4054752 L26.0751903,51.1042016 L29.4937881,49.2230431 L37.8319026,53.9426189 L37.8319026,57.7411957 L31.3575505,61.3889317 C30.7455253,61.7399266 30.2879636,62.3331369 30.1043561,63.0133708 C29.9280346,63.668948 30.0140095,64.3462811 30.3506234,64.9220868 C30.8183855,65.7343063 31.6504483,66.2187373 32.575772,66.2187373 C33.0653922,66.2187373 33.6031,66.0853012 33.9819727,65.8691928 L37.8319026,63.742918 L37.8319026,69.4110502 C37.8319026,70.8614422 38.9422911,72 40.3630638,72 C41.7852938,72 42.8985967,70.8614422 42.8985967,69.4110502 L42.8985967,63.7052078 L46.5955202,65.8749943 C47.844343,66.5842361 49.410836,66.1201106 50.107379,64.9220868 C50.8316088,63.6762 50.423592,62.0894711 49.1995416,61.3860309 L42.8985967,57.7353941 L42.8985967,53.94697 L50.8782392,49.3216698 L53.9194215,51.1187055 L53.9194215,58.4054752 C53.9194215,59.8587681 55.02981,60.9958754 56.4505828,60.9958754 C57.8728127,60.9958754 58.9861156,59.8587681 58.9861156,58.4054752 L58.9861156,54.1181163 L64.0090937,56.9449304 C65.1850564,57.6251643 66.9380713,57.1958483 67.6316999,56.0007252 C68.3501008,54.76064 67.9318836,53.1739111 66.6990901,52.463219 Z" id="path-2"></path>
        <filter x="-13.4%" y="-11.7%" width="126.8%" height="123.4%" filterUnits="objectBoundingBox" id="filter-3">
            <feOffset dx="0" dy="0" in="SourceAlpha" result="shadowOffsetOuter1"></feOffset>
            <feGaussianBlur stdDeviation="2.5" in="shadowOffsetOuter1" result="shadowBlurOuter1"></feGaussianBlur>
            <feColorMatrix values="0 0 0 0 0   0 0 0 0 0   0 0 0 0 0  0 0 0 0.2 0" type="matrix" in="shadowBlurOuter1"></feColorMatrix>
        </filter>
    </defs>
    <g id="type/weather-42" stroke="none" stroke-width="1" fill="none" fill-rule="evenodd">
        <rect id="space" fill-opacity="0.01" fill="#D8D8D8" fill-rule="nonzero" x="0" y="0" width="80" height="80"></rect>
        <g id="Fill-1">
            <use fill="black" fill-opacity="1" filter="url(#filter-3)" xlink:href="#path-2"></use>
            <use fill="url(#linearGradient-1)" fill-rule="evenodd" xlink:href="#path-2"></use>
        </g>
    </g>
</svg>