<?xml version="1.0" encoding="UTF-8"?>
<svg width="80px" height="80px" viewBox="0 0 80 80" version="1.1" xmlns="http://www.w3.org/2000/svg" xmlns:xlink="http://www.w3.org/1999/xlink">
    <!-- Generator: Sketch 52.2 (67145) - http://www.bohemiancoding.com/sketch -->
    <title>type/weather-23</title>
    <desc>Created with Sketch.</desc>
    <defs>
        <filter x="-16.4%" y="-16.4%" width="132.8%" height="132.8%" filterUnits="objectBoundingBox" id="filter-1">
            <feOffset dx="0" dy="0" in="SourceAlpha" result="shadowOffsetOuter1"></feOffset>
            <feGaussianBlur stdDeviation="2.5" in="shadowOffsetOuter1" result="shadowBlurOuter1"></feGaussianBlur>
            <feColorMatrix values="0 0 0 0 0   0 0 0 0 0   0 0 0 0 0  0 0 0 0.2 0" type="matrix" in="shadowBlurOuter1" result="shadowMatrixOuter1"></feColorMatrix>
            <feMerge>
                <feMergeNode in="shadowMatrixOuter1"></feMergeNode>
                <feMergeNode in="SourceGraphic"></feMergeNode>
            </feMerge>
        </filter>
        <linearGradient x1="50%" y1="100%" x2="50%" y2="3.061617e-15%" id="linearGradient-2">
            <stop stop-color="#E6E6E6" offset="0%"></stop>
            <stop stop-color="#FFFFFF" offset="100%"></stop>
        </linearGradient>
        <linearGradient x1="50%" y1="100%" x2="50%" y2="3.061617e-15%" id="linearGradient-3">
            <stop stop-color="#92BFE0" offset="0%"></stop>
            <stop stop-color="#EBEBEB" offset="100%"></stop>
        </linearGradient>
    </defs>
    <g id="type/weather-23" stroke="none" stroke-width="1" fill="none" fill-rule="evenodd">
        <rect id="space" fill-opacity="0.01" fill="#D8D8D8" fill-rule="nonzero" x="0" y="0" width="80" height="80"></rect>
        <g id="weather-21" filter="url(#filter-1)" transform="translate(8.000000, 8.000000)">
            <path d="M53.5849057,28 L26.6792453,28 L26.6792453,27.9886844 C26.5355338,27.9961971 26.3908489,28 26.245283,28 C21.6915389,28 18,24.278367 18,19.6875 C18,15.096633 21.6915389,11.375 26.245283,11.375 C26.4692197,11.375 26.6910714,11.3840001 26.9105014,11.4016611 C28.0810074,4.91118518 33.5554228,0 40.1320755,0 C45.1679373,0 49.5575307,2.87954656 51.8634363,7.14275561 C52.4234159,7.04885771 52.9985013,7 53.5849057,7 C59.3370034,7 64,11.7010101 64,17.5 C64,23.2989899 59.3370034,28 53.5849057,28 Z" id="Combined-Shape" fill="url(#linearGradient-2)" fill-rule="nonzero" opacity="0.9"></path>
            <path d="M49.2307692,46.9921916 L49.2307692,47 L11.8153846,47 L11.8153846,46.9897185 C11.6521534,46.9965496 11.4880271,47 11.3230769,47 C5.06951422,47 0,42.0406926 0,35.9230769 C0,29.8054612 5.06951422,24.8461538 11.3230769,24.8461538 C11.6542066,24.8461538 11.9820166,24.8600586 12.3059299,24.8873037 C14.2393303,16.9280235 21.6617036,11 30.5230769,11 C37.6487779,11 43.8439843,14.8332138 47.0028246,20.4734331 C47.8834347,20.3141709 48.7928667,20.2307692 49.7230769,20.2307692 C57.6080038,20.2307692 64,26.2232657 64,33.6153846 C64,41.0075036 57.6080038,47 49.7230769,47 C49.5583075,47 49.3941901,46.9973832 49.2307692,46.9921916 Z" id="Combined-Shape" fill="url(#linearGradient-3)" fill-rule="nonzero" opacity="0.9"></path>
            <path d="M36.3225458,49.5095862 L31.9977761,52.0284186 L27.6761289,49.5095862 L27.6761289,44.4896433 L31.9977761,41.9723519 L36.3225458,44.4896433 L36.3225458,49.5095862 Z M46.303084,53.6210851 L43.6488931,52.1085528 L45.6551491,50.9650999 C45.9775553,50.781716 46.208626,50.4850655 46.3046453,50.1298554 C46.4014452,49.7746453 46.3522646,49.4040248 46.1656906,49.0865703 C45.7808329,48.429316 44.9260273,48.2027829 44.2609183,48.5818792 L40.922883,50.5243621 L39.4287297,49.6228527 L39.4287297,44.3771473 L40.9213218,43.4756379 L44.2952667,45.4188914 C44.9611563,45.8002991 45.8011296,45.5514209 46.1742776,44.9134297 C46.557574,44.2584871 46.3265033,43.4147668 45.6590524,43.0349001 L43.6504544,41.8914472 L46.3038646,40.3789149 C46.9689736,39.9998187 47.1977024,39.1560984 46.8136254,38.4996147 C46.4295483,37.8439016 45.5380525,37.6119748 44.8651371,37.9964647 L42.1711334,39.5005212 L42.1711334,37.2220913 C42.1711334,36.4508 41.5747211,35.8467117 40.8128122,35.8467117 C40.0516839,35.8467117 39.4568329,36.4508 39.4568329,37.2220913 L39.4568329,41.1024339 L37.729267,42.0424693 L33.1609362,39.4758646 L33.1609362,37.5742193 L36.6301197,35.6379006 C37.3045964,35.2526402 37.5473768,34.4089199 37.1679837,33.7601414 C36.9837516,33.4434574 36.6746164,33.2161537 36.3006878,33.1198386 C35.9236366,33.022753 35.5387789,33.0705253 35.2140309,33.2562208 L33.1609362,34.3881159 L33.1609362,31.3753796 C33.1609362,30.6040883 32.5653045,30 31.8041763,30 C31.0422674,30 30.4466358,30.6040883 30.4466358,31.3753796 L30.4466358,34.4066083 L28.4653604,33.2546798 C27.7986901,32.8755836 26.9673039,33.0959525 26.5769817,33.7609119 C26.1905627,34.4212482 26.4107044,35.2649685 27.068007,35.6402121 L30.4466358,37.5773014 L30.4466358,39.7085618 L26.2748723,42.107193 L24.5426225,41.0939582 L24.5426225,37.2220913 C24.5426225,36.4508 23.9462102,35.8467117 23.1843013,35.8467117 C22.423173,35.8467117 21.8275414,36.4508 21.8275414,37.2220913 L21.8275414,39.5005212 L19.135099,37.9980057 C18.8095703,37.8115397 18.4309578,37.7622264 18.0624937,37.8585414 C17.6971521,37.9548565 17.3927008,38.1821602 17.2069074,38.4996147 C16.8228304,39.15841 17.0460947,40.0021303 17.7057392,40.3789149 L20.3544655,41.8922177 L18.3458676,43.0349001 C17.6791973,43.4139963 17.4489072,44.256946 17.8329842,44.9142002 C18.2045709,45.5460273 19.0929442,45.7864298 19.7385371,45.4181208 L23.1655658,43.4818021 L24.9610479,44.4850202 L24.9610479,49.5142093 L23.1640045,50.5181979 L19.7525887,48.5818792 C19.0820152,48.1997009 18.2248677,48.4270045 17.8384487,49.0865703 C17.4543717,49.7438245 17.6823199,50.5867742 18.3466482,50.9650999 L20.3505623,52.1093233 L17.6963715,53.6210851 C17.0312625,54.0009518 16.8025337,54.8439016 17.18583,55.5003853 C17.4348556,55.9249422 17.8969971,56.1884603 18.3942675,56.1884603 C18.6534414,56.1884603 18.9297895,56.119884 19.1319764,56.0035353 L21.8275414,54.4987082 L21.8275414,56.7779087 C21.8275414,57.5499705 22.4200505,58.1540588 23.1780561,58.1540588 C23.9485521,58.1540588 24.5527709,57.5499705 24.5527709,56.7779087 L24.5402805,52.8991071 L26.3716722,51.8997416 L30.8385192,54.4070163 L30.8385192,56.4250102 L27.3701163,58.36287 C27.0422457,58.549336 26.7971234,58.864479 26.6987622,59.2258532 C26.6043042,59.5741286 26.6503622,59.9339618 26.8306911,60.2398586 C27.0812779,60.6713502 27.5270259,60.9287042 28.022735,60.9287042 C28.2850315,60.9287042 28.5730893,60.8578163 28.7760568,60.7430087 L30.8385192,59.6134252 L30.8385192,62.6246204 C30.8385192,63.3951412 31.4333702,64 32.1944985,64 C32.9564074,64 33.5528197,63.3951412 33.5528197,62.6246204 L33.5528197,59.5933917 L35.5333144,60.7460907 C36.2023266,61.1228754 37.0415193,60.8763088 37.4146673,60.2398586 C37.8026475,59.5779812 37.5840671,58.7350315 36.9283259,58.3613289 L33.5528197,56.4219281 L33.5528197,54.4093278 L37.8276282,51.9521371 L39.4568329,52.9068123 L39.4568329,56.7779087 C39.4568329,57.5499705 40.0516839,58.1540588 40.8128122,58.1540588 C41.5747211,58.1540588 42.1711334,57.5499705 42.1711334,56.7779087 L42.1711334,54.5002493 L44.8620145,56.0019943 C45.4919945,56.3633685 46.4311096,56.1352944 46.8026964,55.5003853 C47.187554,54.84159 46.9635091,53.9986403 46.303084,53.6210851 Z" id="Fill-1" fill="url(#linearGradient-2)"></path>
        </g>
    </g>
</svg>